<svg xmlns="http://www.w3.org/2000/svg" xmlns:xlink="http://www.w3.org/1999/xlink" version="1.1" x="0px" y="0px" viewBox="0 0 100 125" enable-background="new 0 0 100 100" xml:space="preserve"><g><path d="M57.4,39.3c0-4.1-3.3-7.5-7.5-7.5c-4.1,0-7.5,3.3-7.5,7.5s3.3,7.5,7.5,7.5C54,46.7,57.4,43.4,57.4,39.3z"/><path d="M62.5,53.3c-4.1,0-7.5,3.3-7.5,7.5s3.3,7.5,7.5,7.5s7.5-3.3,7.5-7.5S66.6,53.3,62.5,53.3z"/><path d="M37.5,53.3c-4.1,0-7.5,3.3-7.5,7.5s3.3,7.5,7.5,7.5s7.5-3.3,7.5-7.5S41.6,53.3,37.5,53.3z"/></g></svg>